<?xml version="1.0" standalone="no"?>
<!DOCTYPE svg PUBLIC "-//W3C//DTD SVG 20010904//EN"
 "http://www.w3.org/TR/2001/REC-SVG-20010904/DTD/svg10.dtd">
<svg version="1.0" xmlns="http://www.w3.org/2000/svg">
  <symbol id="create-icon" viewBox="0 0 512.000000 512.000000">
  <g transform="translate(0.000000,512.000000) scale(0.100000,-0.100000)">
    <path d="M1751 5104 c-43 -31 -51 -70 -51 -259 0 -274 1 -275 238 -275 l164 0
    34 34 34 34 0 207 0 207 -34 34 -34 34 -164 0 c-135 0 -168 -3 -187 -16z m259
    -259 l0 -125 -75 0 -75 0 0 125 0 125 75 0 75 0 0 -125z"/>
    <path d="M2984 5006 l-34 -34 0 -351 c0 -300 2 -356 16 -382 24 -48 65 -59
    219 -59 152 0 182 9 215 63 19 30 20 52 20 365 0 367 -3 387 -59 416 -23 13
    -64 16 -187 16 l-156 0 -34 -34z m276 -396 l0 -270 -75 0 -75 0 0 270 0 270
    75 0 75 0 0 -270z"/>
    <path d="M3634 4764 c-61 -30 -64 -46 -64 -319 0 -341 -4 -335 235 -335 239 0
    235 -5 235 330 0 271 -5 296 -65 324 -46 22 -296 22 -341 0z m246 -319 l0
    -175 -75 0 -75 0 0 175 0 175 75 0 75 0 0 -175z"/>
    <path d="M1118 4691 l-33 -29 -3 -253 c-4 -359 -11 -349 234 -349 l164 0 32
    29 33 29 0 272 0 272 -33 29 -32 29 -165 0 -165 0 -32 -29z m272 -296 l0 -175
    -75 0 -75 0 0 175 0 175 75 0 75 0 0 -175z"/>
    <path d="M2411 4587 c-19 -6 -44 -25 -55 -40 -20 -26 -21 -44 -24 -245 -4
    -267 -1 -295 43 -339 l33 -33 160 0 c158 0 161 0 191 26 17 14 35 42 41 62 5
    20 10 134 9 252 0 321 -2 324 -222 327 -94 2 -154 -1 -176 -10z m239 -322 l0
    -175 -80 0 -80 0 0 175 0 175 80 0 80 0 0 -175z"/>
    <path d="M1763 4250 c-60 -36 -63 -51 -63 -340 l0 -260 -74 0 -74 0 -4 81 c-3
    77 -5 82 -36 110 l-32 29 -163 0 c-131 0 -167 -3 -185 -16 -36 -25 -52 -68
    -52 -139 l0 -65 -273 0 -273 0 -52 -26 c-56 -28 -91 -63 -125 -128 -18 -35
    -22 -61 -25 -181 -3 -128 -2 -143 16 -165 28 -34 96 -35 123 -1 16 20 19 40
    19 133 0 126 14 169 64 196 26 14 68 17 279 20 l247 3 0 -75 0 -76 -203 0
    c-200 0 -204 0 -225 -23 l-22 -23 0 -1226 c0 -1224 0 -1225 21 -1252 l20 -26
    1889 0 1889 0 20 26 c21 27 21 28 21 1249 0 1221 0 1222 -21 1249 l-20 26
    -205 0 -204 0 0 76 0 75 248 -3 c276 -3 295 -8 326 -72 15 -31 16 -153 16
    -1351 0 -1459 4 -1366 -64 -1403 -29 -16 -163 -17 -2006 -17 -1843 0 -1977 1
    -2006 17 -68 37 -64 -29 -64 1162 l0 1077 -25 24 c-32 33 -78 33 -110 0 l-25
    -24 0 -1093 c1 -887 3 -1100 14 -1130 l14 -38 -148 0 -148 0 -32 -31 -31 -32
    3 -176 c3 -163 5 -180 27 -226 32 -63 93 -124 156 -156 l50 -24 1982 -3 1981
    -2 21 26 c27 34 27 64 0 98 l-20 26 -1952 2 -1952 3 -45 25 c-69 39 -91 88
    -98 216 l-5 104 937 0 936 0 0 -40 c0 -50 23 -106 58 -143 55 -58 48 -57 476
    -57 255 0 405 4 423 11 67 25 122 109 123 187 l0 42 936 0 937 0 -5 -104 c-7
    -128 -29 -177 -98 -216 -43 -24 -55 -25 -243 -30 -182 -5 -200 -7 -213 -24
    -21 -29 -18 -82 7 -107 19 -19 29 -20 242 -17 212 3 224 4 272 27 63 32 124
    93 156 156 22 46 24 63 27 226 l3 176 -31 32 -32 31 -148 0 -148 0 14 38 c11
    30 13 285 14 1382 0 886 -4 1358 -10 1382 -17 59 -71 130 -124 163 l-49 30
    -284 3 -283 3 0 65 c0 70 -16 113 -52 138 -18 13 -54 16 -185 16 l-163 0 -32
    -29 c-31 -28 -33 -33 -36 -110 l-4 -81 -74 0 -74 0 0 60 c0 33 -6 76 -14 94
    -26 61 -42 66 -224 66 l-164 0 -34 -34 c-33 -33 -34 -37 -34 -110 l0 -76 -390
    0 -390 0 0 265 c0 222 -3 271 -16 296 -25 48 -65 59 -221 59 -119 0 -142 -3
    -170 -20z m247 -370 l0 -230 -75 0 -75 0 0 230 0 230 75 0 75 0 0 -230z m-620
    -566 c0 -436 2 -449 61 -479 41 -22 308 -21 349 0 58 30 60 45 60 370 l0 295
    75 0 75 0 0 -100 c0 -186 17 -200 234 -200 99 0 165 4 181 12 44 20 55 55 55
    178 l0 110 80 0 80 0 0 -250 0 -250 29 -32 29 -33 166 -3 165 -3 38 35 38 34
    3 356 3 356 74 0 75 0 0 -440 c0 -484 0 -484 60 -515 42 -22 298 -21 345 1 65
    30 65 33 65 518 l0 436 75 0 75 0 0 -550 c0 -302 -1 -550 -2 -550 -2 0 -25 7
    -52 15 -74 23 -2458 23 -2532 0 -27 -8 -50 -15 -51 -15 -2 0 -3 248 -3 550 l0
    550 75 0 75 0 0 -396z m310 111 l0 -75 -75 0 -75 0 0 75 0 75 75 0 75 0 0 -75z
    m620 0 l0 -75 -75 0 -75 0 0 75 0 75 75 0 75 0 0 -75z m630 0 l0 -75 -75 0
    -75 0 0 75 0 75 75 0 75 0 0 -75z m620 0 l0 -75 -75 0 -75 0 0 75 0 75 75 0
    75 0 0 -75z m-2488 -1077 l3 -853 27 -50 c31 -60 77 -104 138 -136 l45 -24
    1265 0 1265 0 45 24 c61 32 107 76 138 136 l27 50 3 853 2 852 145 0 145 0 0
    -1125 0 -1125 -1770 0 -1770 0 0 1125 0 1125 145 0 145 0 2 -852z m618 742 l0
    -110 -75 0 -75 0 0 110 0 110 75 0 75 0 0 -110z m1250 55 l0 -55 -75 0 -75 0
    0 55 0 55 75 0 75 0 0 -55z m620 -95 l0 -150 -75 0 -75 0 0 150 0 150 75 0 75
    0 0 -150z m229 -588 c19 -9 44 -30 55 -45 20 -28 21 -39 21 -457 0 -418 -1
    -429 -21 -457 -11 -15 -36 -36 -55 -45 -32 -17 -112 -18 -1239 -18 -1127 0
    -1207 1 -1239 18 -19 9 -44 30 -55 45 -20 28 -21 39 -21 457 0 418 1 429 21
    457 11 15 36 36 55 45 32 17 112 18 1239 18 1127 0 1207 -1 1239 -18z m-859
    -1991 c0 -60 -9 -61 -380 -61 -371 0 -380 1 -380 61 l0 29 380 0 380 0 0 -29z"/>
    <path d="M1405 2315 l-25 -24 0 -331 0 -331 25 -24 24 -25 1131 0 1131 0 24
    25 25 24 0 331 0 331 -25 24 -24 25 -256 0 -256 0 -24 -25 c-16 -15 -25 -36
    -25 -55 0 -19 9 -40 25 -55 24 -25 25 -25 225 -25 l200 0 0 -220 0 -220 -1020
    0 -1020 0 0 220 0 220 75 0 75 0 0 -61 c0 -90 18 -137 70 -189 93 -94 227 -94
    320 0 52 52 70 99 70 189 0 54 2 61 20 61 18 0 20 -7 20 -61 0 -34 6 -80 12
    -103 16 -54 90 -128 144 -144 91 -27 169 -8 234 58 52 52 70 99 70 189 l0 61
    130 0 c126 0 132 1 155 25 16 15 25 36 25 55 0 19 -9 40 -25 55 l-24 25 -741
    0 -741 0 -24 -25z m585 -190 c0 -46 -4 -60 -25 -80 -13 -14 -33 -25 -45 -25
    -11 0 -32 11 -45 25 -21 20 -25 34 -25 80 l0 55 70 0 70 0 0 -55z m500 0 c0
    -46 -4 -60 -25 -80 -13 -14 -33 -25 -45 -25 -11 0 -32 11 -45 25 -21 20 -25
    34 -25 80 l0 55 70 0 70 0 0 -55z"/></g>
  </symbol>
</svg>
