<?xml version="1.0" standalone="no"?>
<!DOCTYPE svg PUBLIC "-//W3C//DTD SVG 20010904//EN"
 "http://www.w3.org/TR/2001/REC-SVG-20010904/DTD/svg10.dtd">
<svg version="1.0" xmlns="http://www.w3.org/2000/svg">
   <symbol id="connect-icon" viewBox="0 0 512.000000 512.000000">
    <g transform="translate(0.000000,512.000000) scale(0.100000,-0.100000)">
    <path d="M3940 5114 c-74 -14 -187 -47 -222 -65 -50 -26 -74 -76 -58 -122 27
    -79 72 -90 202 -50 84 25 107 28 238 28 155 0 205 -9 325 -62 179 -78 337
    -234 415 -409 91 -202 94 -442 8 -651 -16 -40 -33 -73 -36 -73 -4 0 -15 19
    -26 41 -10 23 -45 69 -77 103 -60 64 -123 105 -197 127 -33 10 -41 16 -36 28
    36 82 43 122 44 237 0 141 -20 215 -79 294 -87 115 -196 170 -341 170 -122 0
    -216 -38 -299 -121 -92 -93 -121 -174 -121 -344 1 -115 8 -154 44 -236 5 -12
    -3 -19 -36 -28 -24 -7 -61 -22 -83 -33 -58 -30 -158 -131 -186 -188 -13 -27
    -27 -49 -31 -50 -3 0 -20 33 -36 73 -77 186 -83 379 -21 587 23 77 18 110 -23
    145 -52 44 -131 26 -161 -37 -83 -177 -91 -489 -19 -703 12 -33 18 -63 14 -66
    -12 -10 -895 -480 -897 -477 -1 2 -24 32 -51 68 -191 253 -481 425 -794 471
    -130 19 -362 7 -484 -25 -109 -29 -228 -76 -278 -110 -45 -30 -63 -85 -44
    -131 14 -33 59 -65 91 -65 9 0 66 21 128 46 142 59 260 84 398 84 490 0 903
    -333 1001 -810 16 -77 19 -121 15 -235 -5 -158 -27 -256 -80 -369 l-33 -70
    -29 60 c-44 86 -161 202 -252 247 -40 19 -98 41 -128 48 -31 7 -54 15 -53 18
    2 3 15 30 31 58 39 75 57 163 57 284 0 134 -12 196 -54 286 -81 171 -273 292
    -462 293 -237 1 -448 -164 -509 -397 -20 -75 -19 -268 0 -351 8 -34 27 -86 42
    -115 16 -28 29 -55 31 -58 1 -3 -22 -11 -53 -18 -30 -7 -88 -29 -128 -48 -90
    -45 -208 -161 -251 -247 l-29 -58 -18 33 c-58 108 -99 292 -99 439 0 161 26
    273 105 459 24 57 26 69 16 103 -14 46 -50 72 -98 70 -52 -2 -79 -24 -113 -92
    -138 -274 -160 -655 -54 -952 136 -381 455 -671 851 -774 121 -32 353 -44 483
    -25 180 27 352 94 509 198 95 64 247 211 301 291 19 29 38 51 41 49 4 -1 207
    -110 453 -241 358 -192 445 -243 440 -255 -49 -113 -75 -306 -62 -469 33 -419
    339 -780 758 -894 74 -20 108 -23 260 -23 152 0 186 3 260 23 228 63 441 209
    575 396 58 82 129 232 157 332 18 67 22 106 22 259 1 158 -2 190 -22 265 -32
    116 -59 162 -102 176 -41 13 -85 3 -114 -26 -28 -27 -26 -82 7 -204 45 -166
    36 -338 -28 -506 -26 -68 -42 -98 -47 -90 -2 3 -12 23 -23 45 -48 95 -169 195
    -273 226 -33 10 -41 16 -36 28 36 82 43 122 44 237 0 141 -20 215 -79 294 -87
    115 -196 170 -341 170 -122 0 -216 -38 -299 -121 -92 -93 -121 -174 -121 -344
    1 -114 8 -154 44 -236 5 -12 -5 -19 -46 -32 -104 -33 -215 -126 -260 -218 -13
    -27 -26 -48 -30 -49 -12 0 -68 147 -83 220 -21 102 -19 257 5 358 69 289 284
    509 585 599 46 14 95 18 205 18 131 0 154 -3 238 -28 107 -33 139 -30 177 15
    44 52 28 126 -36 158 -20 11 -74 30 -120 42 -74 20 -106 23 -264 22 -153 0
    -192 -4 -259 -22 -100 -28 -250 -99 -332 -157 -70 -50 -189 -166 -226 -221
    -13 -19 -27 -34 -31 -34 -7 0 -885 467 -896 476 -2 2 6 29 17 61 50 138 72
    265 72 416 0 167 -19 284 -72 430 -11 32 -19 59 -17 61 11 9 891 476 897 476
    4 0 18 -16 31 -36 14 -20 55 -66 92 -104 218 -220 505 -324 824 -298 432 35
    791 345 901 778 15 60 19 109 18 250 0 160 -3 183 -28 265 -54 181 -137 323
    -259 443 -99 99 -164 146 -282 202 -151 74 -229 91 -420 95 -88 2 -171 1 -185
    -1z m273 -647 c20 -15 49 -44 64 -64 27 -35 28 -41 28 -153 0 -110 -1 -119
    -27 -158 -85 -127 -271 -127 -356 0 -24 37 -27 52 -30 144 -4 113 7 151 59
    203 47 47 87 62 160 59 54 -3 73 -9 102 -31z m-198 -672 c76 -18 136 -15 222
    11 48 15 57 15 125 -1 172 -42 255 -123 266 -261 l5 -62 -72 -50 c-139 -98
    -291 -144 -471 -143 -168 1 -340 58 -474 157 l-49 36 5 62 c6 75 33 130 88
    180 45 41 64 50 160 77 70 19 88 19 195 -6z m-2661 -659 c63 -31 119 -89 150
    -155 18 -39 21 -64 21 -176 0 -152 -14 -194 -87 -267 -66 -67 -127 -92 -218
    -93 -64 0 -84 5 -133 30 -67 34 -120 88 -150 154 -29 63 -36 235 -13 313 54
    186 258 278 430 194z m-295 -878 c108 -38 254 -33 358 12 l42 18 118 -32 c65
    -17 142 -45 171 -61 106 -57 180 -171 189 -289 l5 -62 -68 -56 c-130 -105
    -244 -165 -399 -210 -70 -20 -102 -23 -255 -23 -152 0 -185 3 -254 23 -159 46
    -294 118 -414 220 l-54 47 5 61 c9 113 72 216 174 281 56 35 286 106 313 96 8
    -3 39 -15 69 -25z m3154 -871 c20 -15 49 -44 64 -64 27 -35 28 -41 28 -153 0
    -110 -1 -119 -27 -158 -85 -127 -271 -127 -356 0 -24 37 -27 52 -30 144 -4
    113 7 151 59 203 47 47 87 62 160 59 54 -3 73 -9 102 -31z m-198 -672 c76 -18
    136 -15 222 11 48 15 57 15 125 -1 100 -25 132 -39 179 -82 54 -49 81 -104 87
    -179 l5 -61 -66 -47 c-271 -193 -650 -197 -923 -8 l-69 48 1 64 c1 78 24 130
    84 184 45 41 64 50 160 77 70 19 88 19 195 -6z"/>
    <path d="M3423 4852 c-49 -8 -86 -71 -75 -127 14 -75 116 -102 173 -46 71 72
    5 190 -98 173z"/>
    <path d="M382 3445 c-39 -17 -65 -69 -56 -114 16 -81 116 -110 175 -52 80 81
    -14 212 -119 166z"/>
    <path d="M4723 1773 c-72 -14 -99 -119 -44 -174 24 -23 38 -29 74 -29 82 0
    126 79 86 156 -17 33 -72 55 -116 47z"/>
    </g>
  </symbol>
</svg>
