<?xml version="1.0" standalone="no"?>
<!DOCTYPE svg PUBLIC "-//W3C//DTD SVG 20010904//EN"
 "http://www.w3.org/TR/2001/REC-SVG-20010904/DTD/svg10.dtd">
<svg version="1.0" xmlns="http://www.w3.org/2000/svg">
  <symbol id="rise-icon" viewBox="0 0 512.000000 512.000000">
    <g transform="translate(0.000000,512.000000) scale(0.100000,-0.100000)">
    <path d="M1570 5114 c-14 -2 -59 -9 -100 -15 -41 -5 -126 -24 -188 -40 -641
    -168 -1107 -674 -1244 -1351 -20 -100 -23 -141 -23 -353 1 -209 4 -253 23
    -340 71 -325 197 -563 416 -781 185 -184 360 -290 615 -374 238 -78 416 -100
    819 -100 248 0 288 -2 303 -16 17 -15 6 -39 -201 -454 -120 -240 -222 -453
    -225 -473 -15 -76 -3 -92 339 -436 176 -178 339 -336 360 -352 32 -24 49 -29
    96 -29 47 0 64 5 96 29 21 16 184 174 360 352 342 344 354 360 339 436 -3 20
    -105 233 -225 473 -207 415 -218 439 -201 454 15 14 55 16 303 16 314 0 432 9
    614 45 320 65 586 200 805 412 221 214 357 466 431 798 20 88 22 130 23 340 0
    212 -3 253 -23 353 -135 666 -599 1176 -1225 1347 -199 54 -228 57 -639 62
    -381 5 -388 4 -422 -16 -84 -52 -89 -204 -8 -257 15 -10 64 -23 110 -30 138
    -21 216 -71 272 -176 34 -62 34 -66 40 -215 4 -133 8 -155 26 -179 36 -49 66
    -64 146 -74 223 -28 337 -195 299 -436 -33 -204 -134 -381 -288 -509 -72 -60
    -213 -134 -300 -159 l-53 -15 0 317 0 318 43 11 c138 37 152 233 20 289 -42
    18 -564 20 -645 3 -188 -41 -341 -205 -368 -394 -5 -38 -10 -177 -10 -307 l0
    -237 -52 15 c-82 23 -227 98 -293 151 -88 71 -168 173 -219 277 -59 120 -80
    207 -80 331 -1 88 2 107 25 155 52 109 146 174 277 190 80 10 110 25 146 74
    18 24 22 46 26 179 6 149 6 153 40 215 56 105 134 155 273 176 50 7 94 20 110
    32 79 58 75 203 -8 254 -31 19 -48 20 -381 19 -192 -1 -360 -3 -374 -5z m110
    -309 c0 -3 -9 -24 -21 -46 -27 -55 -59 -181 -59 -238 l0 -46 -87 -21 c-221
    -53 -384 -139 -530 -278 -198 -188 -303 -415 -334 -721 -20 -194 15 -447 88
    -645 89 -238 221 -441 393 -603 l81 -77 -66 25 c-275 104 -508 301 -662 560
    -60 101 -104 207 -141 345 -24 87 -26 112 -26 300 -1 164 3 222 18 289 130
    595 588 1038 1181 1145 83 15 165 20 165 11z m1926 -10 c220 -38 452 -136 615
    -259 292 -221 492 -550 566 -931 23 -123 23 -389 -1 -500 -58 -265 -154 -451
    -323 -626 -126 -131 -271 -231 -431 -298 -117 -50 -119 -48 -37 30 123 117
    234 268 314 427 231 460 222 998 -23 1366 -70 106 -217 246 -324 310 -95 57
    -229 110 -354 140 l-88 21 0 46 c0 57 -32 183 -59 238 -12 22 -21 43 -21 46 0
    10 77 5 166 -10z m-2465 -1165 c39 -216 158 -430 327 -592 146 -139 310 -230
    500 -276 l112 -27 0 -327 0 -327 -32 5 c-205 36 -365 99 -536 214 -267 178
    -464 474 -538 805 -25 115 -30 315 -10 415 20 98 68 216 117 286 l34 49 7 -80
    c4 -44 12 -109 19 -145z m2949 85 c54 -114 71 -182 77 -325 24 -588 -397
    -1139 -977 -1278 -47 -11 -100 -23 -117 -26 l-33 -5 0 328 0 329 48 7 c74 11
    199 54 287 97 227 114 417 308 520 531 60 129 104 316 105 440 l1 42 25 -30
    c14 -16 42 -66 64 -110z m-1360 -878 l0 -852 -85 -85 -85 -85 -85 85 -85 85 0
    770 c0 499 4 783 10 807 13 47 55 97 95 114 18 8 70 13 133 14 l102 0 0 -853z
    m-168 -1392 c43 0 64 5 87 23 l31 22 166 -331 166 -332 -226 -226 -226 -226
    -226 226 -226 226 166 332 167 332 32 -23 c24 -17 46 -23 89 -23z"/>
    </g>
  </symbol>
</svg>
